<svg xmlns="http://www.w3.org/2000/svg" viewBox="0 6 70 53" xml:space="preserve" width="70" height="53">
  <g data-name="Layer_1">
    <path d="M51.7 30.3c-2.5.4-3.7 2.2-3.7 5.4s1.7 5.4 4.2 5.4 2.3-.4 4.6-1.5v2.6c-2.7 1.3-4.3 1.6-6.6 1.6s-4.1-.6-5.4-2c-1.4-1.4-2.1-3.3-2.1-5.3 0-4.6 3.4-7.7 8.4-7.7s5.6 1.5 5.6 3.7-1.1 2.4-2.6 2.4-1.5-.2-2.3-.7v-3.9Zm-12.1 6.1c2.2-2.8 3-3.9 3-5.3s-1.1-2.5-2.5-2.5-1.7.4-2.1.9v5.7L34.4 40V29H31l-5.7 9.5V29h-2l-5.2 1.3v1.3l2.8.3v11.6h3.7l5.5-9v9h4l5.6-7.1zM7.2 32c.8 0 1.3-.2 1.7-.2 2.4 0 3.7 1.6 3.7 4.6s-1.6 5.4-4.5 5.4h-.8v-9.7Zm0 11.4h2.4c4.9 0 8-3.1 8-7.8s-2.3-6.9-5.5-6.9-2.3.3-4.9 1.9v-1.9H5.7L0 30.4v1.4h2.4V48l-2.1.5v1.3h9.3v-1.3L7.2 48v-4.7Z"/>
    <path d="M49.1 24.8H33.6l2.6-4.4h15.5zM69.9 16H54.4l-2.6 4.4h15.5z" style="fill:#fd5108"/>
  </g>
</svg>
